<svg height="512" viewBox="0 0 64 64" width="512" xmlns="http://www.w3.org/2000/svg"><g id="_20-Education" data-name="20-Education"><path d="m54 39h-42a6.016 6.016 0 0 1 -5.28-8.87 6.114 6.114 0 0 1 1.04-1.37 5.944 5.944 0 0 1 4.24-1.76h42v3h-41a3 3 0 0 0 0 6h41z" fill="#555fa3"/><path d="m52 30v6h-39a3 3 0 0 1 0-6z" fill="#fceee0"/><path d="m13 30a3 3 0 0 0 0 6h2.5a1.5 1.5 0 0 1 0-3h36.5v-3z" fill="#c7b7aa"/><path d="m13 30h41v-3h-2a2 2 0 0 1 -2 2h-37a4 4 0 0 0 0 8h37a2 2 0 0 1 2 2h2v-3h-41a3 3 0 0 1 0-6z" fill="#38406f"/><rect fill="#7d7cda" height="2" rx="1" width="20" x="19" y="27"/><rect fill="#7d7cda" height="2" rx="1" width="4" x="41" y="27"/><path d="m58 51h-42a6.016 6.016 0 0 1 -5.28-8.87 6.114 6.114 0 0 1 1.04-1.37 5.944 5.944 0 0 1 4.24-1.76h42v3h-41a3 3 0 0 0 0 6h41z" fill="#fcc369"/><path d="m56 42v6h-39a3 3 0 0 1 0-6z" fill="#fceee0"/><path d="m17 42a3 3 0 0 0 0 6h2.5a1.5 1.5 0 0 1 0-3h36.5v-3z" fill="#c7b7aa"/><path d="m17 42h41v-3h-2a2 2 0 0 1 -2 2h-37a4 4 0 0 0 0 8h37a2 2 0 0 1 2 2h2v-3h-41a3 3 0 0 1 0-6z" fill="#ed9b52"/><rect fill="#ffcf82" height="2" rx="1" width="20" x="23" y="39"/><rect fill="#ffcf82" height="2" rx="1" width="4" x="45" y="39"/><path d="m54 63h-42a6.016 6.016 0 0 1 -5.28-8.87 6.114 6.114 0 0 1 1.04-1.37 5.944 5.944 0 0 1 4.24-1.76h42v3h-41a3 3 0 0 0 0 6h41z" fill="#555fa3"/><path d="m52 54v6h-39a3 3 0 0 1 0-6z" fill="#fceee0"/><path d="m13 54a3 3 0 0 0 0 6h2.5a1.5 1.5 0 0 1 0-3h36.5v-3z" fill="#c7b7aa"/><path d="m13 54h41v-3h-2a2 2 0 0 1 -2 2h-37a4 4 0 0 0 0 8h37a2 2 0 0 1 2 2h2v-3h-41a3 3 0 0 1 0-6z" fill="#38406f"/><rect fill="#7d7cda" height="2" rx="1" width="20" x="19" y="51"/><rect fill="#7d7cda" height="2" rx="1" width="4" x="41" y="51"/><path d="m40 45v6l4-3 4 3v-6z" fill="#d64379"/><path d="m62.95 26.93a1.691 1.691 0 0 1 -1.7 2.07h-2.5a1.691 1.691 0 0 1 -1.7-2.07l2.95-7.93z" fill="#fbb253"/><path d="m21.95 30a17.069 17.069 0 0 1 -6.95-3 5.115 5.115 0 0 1 -1-1v-11l.06-.18 17.94 6.18 17.94-6.18.06.18v11a5.115 5.115 0 0 1 -1 1 17.069 17.069 0 0 1 -6.95 3 44.493 44.493 0 0 1 -10.05 1 44.493 44.493 0 0 1 -10.05-1z" fill="#393d48"/><path d="m32 1 29 10-1 .34-10.06 3.48-17.94 6.18-17.94-6.18-11.06-3.82z" fill="#555b6b"/><path d="m25 11a10 10 0 0 1 7.758-9.739l-.758-.261-29 10 11.06 3.82 17.94 6.18.759-.261a10 10 0 0 1 -7.759-9.739z" fill="#393d48"/><path d="m49.94 14.82-17.94 6.18-17.94-6.18-.06.18v11a5.115 5.115 0 0 0 1 1 17.069 17.069 0 0 0 6.95 3 44.493 44.493 0 0 0 10.05 1c1.064 0 2.067-.026 3.015-.074a6.976 6.976 0 0 1 -6.015-6.905v-2.054l3 1.033 17.94-6.18.06-.02v-1.8z" fill="#2b2b37"/><path d="m60.5 20.344v-9.174l-.5.17-.5.173v8.831l.5-1.344z" fill="#393d48"/><path d="m62.95 26.93-.3-.8a2 2 0 0 1 -3.65-1.13l1-6-2.95 7.93a1.691 1.691 0 0 0 1.7 2.07h2.5a1.691 1.691 0 0 0 1.7-2.07z" fill="#ed9b52"/></g></svg>