<svg id="Capa_1" enable-background="new 0 0 491.288 491.288" height="512" viewBox="0 0 491.288 491.288" width="512" xmlns="http://www.w3.org/2000/svg"><path d="m482.501 40.606-21.213-21.213-136.118 146.725 79.549-5.303 77.782-77.782c11.715-11.716 11.715-30.711 0-42.427z" fill="#2d3e53"/><path d="m461.288 19.393-10.607-10.606c-11.716-11.716-30.711-11.715-42.426 0l-77.782 77.782 10.607 95.459 120.208-120.208c11.715-11.716 11.715-30.711 0-42.427z" fill="#435d7a"/><path d="m266.833 171.421 106.066 21.213 31.82-31.819-21.213-21.214z" fill="#bfebff"/><path d="m383.506 139.601-53.033-53.032-31.82 31.819 10.607 95.46z" fill="#dff5ff"/><path d="m57.927 433.36-50.003 28.79c-3.884 9.926-7.39 18.886-7.39 18.886-2.383 6.09 3.627 12.101 9.717 9.717l45.024-17.618z" fill="#2d3e53"/><path d="m57.927 433.36-39.775 2.652s-5.405 13.813-10.228 26.138l49.371-19.319z" fill="#435d7a"/><path d="m121.567 369.721-87.505 82.201 21.213 21.213 60.988-23.865z" fill="#ffb17b"/><path d="m95.05 428.057 26.517-58.336-79.55 5.303-23.865 60.988 15.91 15.91z" fill="#ffd19c"/><path d="m95.05 428.057 21.213 21.213 256.636-256.636-21.213-21.213-170.744 85.892z" fill="#077ccc"/><path d="m15.383 235.723h362.938v75h-362.938z" fill="#09a1e5" transform="matrix(.707 -.707 .707 .707 -135.541 219.22)"/></svg>