<svg height="512" viewBox="0 0 64 64" width="512" xmlns="http://www.w3.org/2000/svg"><g id="flat"><path d="m32 3h8v4h-8z" fill="#e1462b"/><path d="m31 3h2v10h-2z" fill="#66342e"/><path d="m46 15h-28l-14 14h56z" fill="#2d75bb"/><path d="m17 27h30v26h-30z" fill="#aabece"/><path d="m47 33h12v20h-12z" fill="#cfdfe8"/><path d="m47 29h14v4h-14z" fill="#195c85"/><path d="m47 27h-30l15-16z" fill="#cfdfe8"/><circle cx="32" cy="21" fill="#50b4f8" r="4"/><path d="m25 41a4 4 0 0 1 4 4v8a0 0 0 0 1 0 0h-8a0 0 0 0 1 0 0v-8a4 4 0 0 1 4-4z" fill="#fcf05a"/><path d="m39 41a4 4 0 0 1 4 4v8a0 0 0 0 1 0 0h-8a0 0 0 0 1 0 0v-8a4 4 0 0 1 4-4z" fill="#fcf05a"/><path d="m22 31h4v6h-4z" fill="#fcf05a"/><path d="m30 31h4v6h-4z" fill="#fcf05a"/><path d="m38 31h4v6h-4z" fill="#fcf05a"/><path d="m17 53h30v4h-30z" fill="#2d75bb"/><path d="m15 57h34v4h-34z" fill="#4a92ce"/><g fill="#50b4f8"><path d="m51 37h4v4h-4z"/><path d="m50 44h2v2h-2z"/><path d="m54 44h2v2h-2z"/><path d="m50 48h2v2h-2z"/><path d="m54 48h2v2h-2z"/></g><path d="m5 33h12v20h-12z" fill="#cfdfe8" transform="matrix(-1 0 0 -1 22 86)"/><path d="m3 29h14v4h-14z" fill="#195c85"/><path d="m9 37h4v4h-4z" fill="#50b4f8" transform="matrix(-1 0 0 -1 22 78)"/><path d="m12 44h2v2h-2z" fill="#50b4f8"/><path d="m8 44h2v2h-2z" fill="#50b4f8"/><path d="m12 48h2v2h-2z" fill="#50b4f8"/><path d="m8 48h2v2h-2z" fill="#50b4f8"/><path d="m3 53h14v4h-14z" fill="#195c85"/><path d="m47 53h14v4h-14z" fill="#195c85"/><path d="m3 57h12v4h-12z" fill="#2d75bb"/><path d="m49 57h12v4h-12z" fill="#2d75bb"/></g></svg>